<svg width="63" height="69" viewBox="0 0 63 69" fill="none" xmlns="http://www.w3.org/2000/svg">
<path d="M44.6846 26.4391C44.6846 26.4391 43.6682 16.9573 34.271 16.6928C24.8705 16.4341 20.0438 23.8056 20.0438 34.3453C20.0438 44.8825 25.3784 53.3123 34.5291 53.3123C43.6708 53.3123 44.6875 42.7754 44.6875 42.7754L62.2133 43.8248C62.2133 43.8248 63.2469 53.341 55.9082 60.6033C48.5811 67.8601 39.5711 69.0475 33.2945 68.9986C27.0066 68.9497 18.2895 69.0963 9.86528 60.4598C1.42983 51.8058 0 43.4105 0 35.1592C0 26.9077 1.59636 15.9824 11.6196 7.70241C18.419 2.07 25.3241 0 32.2293 0C61.062 0 63 26.6231 63 26.6231L44.6846 26.4391Z" fill="#3B46A9"/>
</svg>
