<svg width="78" height="78" viewBox="0 0 78 78" fill="none" xmlns="http://www.w3.org/2000/svg">
<path d="M0 0H78V78H0V0ZM71.6105 59.397C71.0417 55.8382 68.7245 52.8483 61.8507 50.0597C59.4588 48.9385 56.8002 48.1585 56.0105 46.3547C55.7147 45.2822 55.6693 44.6973 55.861 44.0635C56.3485 41.964 58.8347 41.3335 60.7847 41.9185C62.0522 42.3085 63.2223 43.2835 63.9568 44.8435C67.3173 42.6465 67.3173 42.6465 69.6605 41.1873C68.783 39.8223 68.3475 39.234 67.756 38.6522C65.7085 36.361 62.9818 35.191 58.5455 35.2918L56.2542 35.581C54.0573 36.1172 51.9642 37.2873 50.6968 38.8473C46.9917 43.043 48.061 50.3555 52.546 53.378C56.9822 56.693 63.4692 57.421 64.298 60.5443C65.078 64.3467 61.4705 65.5655 57.9085 65.1267C55.2728 64.5417 53.8135 63.2222 52.2048 60.7847L46.2572 64.2005C46.9398 65.7605 47.7197 66.4398 48.8898 67.8048C54.5448 73.5117 68.6823 73.2192 71.2205 64.5417C71.3148 64.2492 72.0005 62.2505 71.461 59.1792L71.6105 59.397ZM42.4157 35.8507H35.1098C35.1098 42.1493 35.0805 48.4088 35.0805 54.717C35.0805 58.721 35.2853 62.3968 34.632 63.5278C33.5595 65.767 30.797 65.481 29.5425 65.0878C28.2555 64.4508 27.6023 63.5733 26.845 62.309C26.6403 61.9678 26.4875 61.672 26.4323 61.672L20.501 65.3282C21.4923 67.3757 22.9385 69.1373 24.804 70.2585C27.5828 71.916 31.317 72.4523 35.2267 71.5748C37.7715 70.8403 39.9652 69.329 41.1125 66.989C42.77 63.9665 42.419 60.2615 42.4027 56.1145C42.4417 49.439 42.4027 42.7603 42.4027 36.0327L42.4157 35.8507Z" fill="#FFC803"/>
</svg>
