<svg width="71" height="71" viewBox="0 0 71 71" fill="none" xmlns="http://www.w3.org/2000/svg">
<path d="M18.373 9.79701C18.373 5.01861 19.6836 2.41913 26.9197 1.1813C31.8323 0.339472 38.1313 0.234244 44.0069 1.1813C48.6476 1.93017 52.5536 5.30974 52.5536 9.79701V25.5619C52.5536 30.1856 48.7613 33.9731 44.0069 33.9731H26.9197C21.1205 33.9731 16.2329 38.8073 16.2329 44.2725V51.8363H10.3577C5.38797 51.8363 2.49448 48.3329 1.27896 43.4307C-0.36063 36.8448 -0.291028 32.9209 1.27896 26.6135C2.64014 21.1111 6.98954 18.2079 11.9596 18.2079H35.4663V16.1033H18.3727V9.79667L18.373 9.79701Z" fill="#057BAD"/>
<path d="M52.5539 60.2479C52.5539 65.0263 48.3122 67.4465 44.0073 68.6535C37.5307 70.4732 32.3328 70.1947 26.92 68.6535C22.3995 67.3662 18.3734 64.7355 18.3734 60.2479V44.483C18.3734 39.9459 22.2417 36.0718 26.92 36.0718H44.0073C49.6988 36.0718 54.694 31.2628 54.694 25.5619V18.2086H61.1009C66.0771 18.2086 68.4199 21.8232 69.6476 26.6142C71.3568 33.2681 71.4329 38.2444 69.6476 43.4314C67.9194 48.4697 66.0706 51.837 61.1009 51.837H35.4667V53.9416H52.5539V60.2482V60.2479Z" fill="#FFD600"/>
<path d="M22.6463 8.75108C22.6463 7.0057 24.0771 5.59424 25.8502 5.59424C27.6164 5.59424 29.054 7.00535 29.054 8.75108C29.054 10.4908 27.6168 11.9016 25.8502 11.9016C24.0778 11.9016 22.6463 10.4905 22.6463 8.75108ZM41.8729 61.2942C41.8729 59.5544 43.3101 58.1437 45.0767 58.1437C46.8491 58.1437 48.2806 59.5548 48.2806 61.2942C48.2806 63.0396 46.8498 64.451 45.0767 64.451C43.3105 64.451 41.8729 63.0399 41.8729 61.2942Z" fill="white"/>
</svg>
