<svg width="78" height="78" viewBox="0 0 78 78" fill="none" xmlns="http://www.w3.org/2000/svg">
<path d="M46.2475 39.0129C46.2475 40.9397 45.4823 42.7876 44.1202 44.1503C42.7581 45.513 40.9105 46.279 38.9837 46.2799C37.0564 46.2799 35.208 45.5143 33.8452 44.1514C32.4824 42.7886 31.7167 40.9402 31.7167 39.0129C31.7167 37.0861 32.4819 35.2382 33.8441 33.8755C35.2062 32.5128 37.0537 31.7467 38.9805 31.7459C40.9078 31.7459 42.7562 32.5115 44.119 33.8743C45.4819 35.2372 46.2475 37.0856 46.2475 39.0129ZM54.8535 4.27039C50.479 4.27039 44.7557 7.39039 38.9675 12.7919C33.1825 7.41964 27.456 4.33539 23.0848 4.33539C21.7523 4.33539 20.54 4.63764 19.4903 5.23889C15.0215 7.81614 14.0205 15.8469 16.328 25.9251C6.435 28.9801 0 33.8649 0 39.0129C0 44.1804 6.4675 49.0781 16.3898 52.1104C14.1018 62.2276 15.1223 70.2714 19.6007 72.8454C20.6408 73.4531 21.8433 73.7391 23.1822 73.7391C27.5535 73.7391 33.28 70.6191 39.0682 65.2111C44.8532 70.5866 50.5798 73.6709 54.951 73.6709C56.2835 73.6709 57.4958 73.3784 58.5455 72.7771C63.011 70.2031 64.0153 62.1724 61.7077 52.0909C71.565 49.0619 78 44.1674 78 39.0129C78 33.8454 71.5325 28.9476 61.6103 25.9089C63.8983 15.8014 62.8778 7.75114 58.3993 5.17389C57.3657 4.57589 56.1633 4.27364 54.8503 4.27039H54.8535ZM54.8372 7.81289V7.83239C55.5685 7.83239 56.1567 7.97539 56.6507 8.24514C58.8153 9.48664 59.7545 14.2089 59.0232 20.2831C58.8477 21.7781 58.5617 23.3544 58.2107 24.9631C55.0907 24.1961 51.6912 23.6079 48.113 23.2276C45.968 20.2864 43.7417 17.6149 41.4992 15.2749C46.6732 10.4649 51.532 7.82589 54.8405 7.81614L54.8372 7.81289ZM23.0848 7.87789C26.3738 7.87789 31.2553 10.5039 36.4422 15.2879C34.2127 17.6279 31.9897 20.2831 29.8772 23.2244C26.2795 23.6046 22.8767 24.1929 19.76 24.9729C19.396 23.3804 19.1263 21.8399 18.9345 20.3579C18.187 14.2869 19.11 9.56789 21.255 8.31014C21.8725 8.01764 22.555 7.89739 23.0848 7.88114V7.87789ZM38.9512 17.7904C40.43 19.3114 41.9088 21.0144 43.3713 22.8734C41.9412 22.8084 40.4787 22.7629 39 22.7629C37.505 22.7629 36.0263 22.7954 34.58 22.8734C36.01 21.0144 37.4888 19.3114 38.9512 17.7871V17.7904ZM39 26.3249C41.405 26.3249 43.8002 26.4354 46.1565 26.6271C47.476 28.5186 48.763 30.5369 50.0013 32.6721C51.2103 34.7521 52.3088 36.8646 53.3097 38.9966C52.3088 41.1254 51.2103 43.2541 50.0175 45.3341C48.7825 47.4791 47.5052 49.5201 46.1825 51.4116C43.8165 51.6164 41.418 51.7301 39 51.7301C36.595 51.7301 34.1998 51.6164 31.8435 51.4279C30.524 49.5364 29.237 47.5149 27.9987 45.3829C26.7897 43.3029 25.6912 41.1904 24.6903 39.0584C25.675 36.9231 26.7897 34.7911 27.9825 32.7079C29.2175 30.5629 30.4947 28.5284 31.8175 26.6369C34.1835 26.4289 36.582 26.3184 39 26.3184V26.3249ZM27.1862 27.1504C26.4062 28.3756 25.6262 29.6301 24.8982 30.9204C24.167 32.1879 23.4845 33.4619 22.8345 34.7359C21.9732 32.6039 21.242 30.4784 20.6375 28.4081C22.7175 27.9206 24.9112 27.4884 27.1862 27.1536V27.1504ZM50.7812 27.1504C53.04 27.4851 55.2175 27.8979 57.3008 28.4081C56.7158 30.4621 55.9845 32.5746 55.1558 34.6904C54.5058 33.4229 53.8232 32.1456 53.0757 30.8749C52.3445 29.6009 51.5645 28.3594 50.7845 27.1504H50.7812ZM60.736 29.3441C62.309 29.8316 63.804 30.3744 65.2048 30.9626C70.8337 33.3676 74.4738 36.5136 74.4738 39.0096C74.4575 41.5056 70.8175 44.6646 65.1885 47.0534C63.8235 47.6384 62.3285 48.1649 60.7847 48.6556C59.8747 45.5421 58.6853 42.2986 57.2098 38.9706C58.6723 35.6654 59.8423 32.4381 60.736 29.3376V29.3441ZM17.2023 29.3571C18.1058 32.4771 19.2985 35.7174 20.7773 39.0421C19.3148 42.3474 18.1383 45.5746 17.2478 48.6751C15.6748 48.1876 14.1798 47.6416 12.7952 47.0501C7.16625 44.6549 3.52625 41.5056 3.52625 39.0096C3.52625 36.5136 7.16625 33.3481 12.7952 30.9626C14.1602 30.3776 15.6553 29.8511 17.2023 29.3571ZM55.1558 43.2671C56.017 45.4024 56.7482 47.5311 57.3527 49.5981C55.2727 50.1084 53.0757 50.5406 50.8007 50.8656C51.5807 49.6469 52.3608 48.3891 53.092 47.1021C53.8232 45.8346 54.5057 44.5411 55.159 43.2671H55.1558ZM22.8345 43.3321C23.4845 44.6061 24.167 45.8769 24.9145 47.1509C25.662 48.4184 26.4258 49.6599 27.2058 50.8656C24.947 50.5341 22.7695 50.1181 20.6862 49.6111C21.2712 47.5636 22.0058 45.4446 22.8313 43.3289L22.8345 43.3321ZM58.24 53.0399C58.604 54.6421 58.89 56.1859 59.0655 57.6646C59.813 63.7356 58.89 68.4546 56.745 69.7156C56.2672 70.0081 55.6465 70.1316 54.9152 70.1316C51.6262 70.1316 46.7447 67.5089 41.5578 62.7216C43.7873 60.3816 46.0103 57.7296 48.1227 54.7916C51.7205 54.4081 55.1232 53.8166 58.24 53.0366V53.0399ZM19.7925 53.0724C22.9125 53.8329 26.312 54.4211 29.8902 54.8014C32.0352 57.7426 34.2615 60.4141 36.504 62.7509C31.3203 67.5706 26.455 70.2096 23.1465 70.2096C22.4315 70.1934 21.827 70.0471 21.3492 69.7806C19.1847 68.5456 18.2455 63.8201 18.9768 57.7459C19.1523 56.2509 19.4383 54.6779 19.7893 53.0724H19.7925ZM34.6125 55.1524C36.0425 55.2174 37.505 55.2629 38.9837 55.2629C40.4787 55.2629 41.9575 55.2304 43.4037 55.1524C41.9737 57.0114 40.495 58.7111 39.0325 60.2386C37.5537 58.7111 36.075 57.0114 34.6125 55.1524Z" fill="#1BB3E3"/>
</svg>
