<?xml version="1.0" encoding="utf-8"?>
<!-- Generator: Adobe Illustrator 24.3.0, SVG Export Plug-In . SVG Version: 6.00 Build 0)  -->
<svg version="1.1" id="Layer_1" xmlns="http://www.w3.org/2000/svg" xmlns:xlink="http://www.w3.org/1999/xlink" x="0px" y="0px"
	 viewBox="0 0 300 330" style="enable-background:new 0 0 300 330;" xml:space="preserve">
<style type="text/css">
	.st0{fill:#616264;}
	.st1{fill:#050505;}
</style>
<g transform="translate(0.000000,330.000000) scale(0.100000,-0.100000)">
	<g id="XMLID_1_">
		<g>
			<path d="M2756,2280c114-232,169-509,145-736c-23-215-59-341-151-529c-71-146-156-259-286-385c-275-264-633-401-1014-387
				c-524,20-988,322-1215,792c-100,206-135,367-135,614c0,193,15,299,66,449c155,469,545,821,1029,932c64,15,125,18,301,19
				c213,1,227,0,335-28C2244,2917,2571,2655,2756,2280z M2834,1297c22,72,46,264,45,364c0,97-26,298-40,315c-5,6-7,13-4,16
				c9,9-47,163-97,267c-51,105-106,195-152,244c-14,15-22,27-19,27c4,0-36,43-88,95s-100,95-106,95c-7,0-13,4-13,9c0,4-19,21-42,37
				c-24,16-45,31-48,34s-27,20-55,37c-123,75-311,148-461,177c-148,29-577,13-604-22c-3-4-18-8-35-10c-16-2-32-8-33-13
				c-2-5-7-7-12-4c-14,9-198-72-290-128c-75-45-178-127-251-198c-182-179-333-449-374-669c-1-3-4-14-7-25c-29-89-31-438-4-565
				c39-189,124-384,233-538c46-65,243-275,250-268c3,2,21-11,41-30s43-34,50-34c6,0,12-4,12-8c0-17,278-156,332-166c13-3,23-5,23-6
				s7-3,15-5s53-14,100-27c76-20,108-22,300-22c189,0,225,2,300,22c77,20,168,50,243,81c16,6,33,11,38,11s9,5,9,11c0,5,5,7,10,4
				c6-3,10-1,10,6s3,9,6,6c4-4,19,2,34,13c16,11,32,20,36,20s44,24,88,54c74,50,286,242,286,259c0,4,8,15,18,26
				C2671,889,2769,1081,2834,1297z"/>
			<path class="st0" d="M2879,1661c1-100-23-292-45-364c-65-216-163-408-256-508c-10-11-18-22-18-26c0-17-212-209-286-259
				c-44-30-84-54-88-54s-20-9-36-20c-15-11-30-17-34-13c-3,3-6,1-6-6s-4-9-10-6c-5,3-10,1-10-4c0-6-4-11-9-11s-22-5-38-11
				c-75-31-166-61-243-81c-75-20-111-22-300-22c-192,0-224,2-300,22c-47,13-92,25-100,27s-15,4-15,5s-10,3-23,6
				c-54,10-332,149-332,166c0,4-6,8-12,8c-7,0-30,15-50,34s-38,32-41,30c-7-7-204,203-250,268c-109,154-194,349-233,538
				c-27,127-25,476,4,565c3,11,6,22,7,25c41,220,192,490,374,669c73,71,176,153,251,198c92,56,276,137,290,128c5-3,10-1,12,4
				c1,5,17,11,33,13c17,2,32,6,35,10c27,35,456,51,604,22c150-29,338-102,461-177c28-17,52-34,55-37s24-18,48-34c23-16,42-33,42-37
				c0-5,6-9,13-9c6,0,54-43,106-95s92-95,88-95c-3,0,5-12,19-27c46-49,101-139,152-244c50-104,106-258,97-267c-3-3-1-10,4-16
				C2853,1959,2879,1758,2879,1661z M2710,1473c14,69,12,289-4,378c-32,180-118,390-211,514c-68,91-120,148-185,204
				c-69,59-84,70-167,124c-45,30-179,101-193,102c-3,0-45,13-95,28c-49,16-101,31-115,36c-14,4-88,8-165,10s-142,4-145,5s-36-1-75-5
				c-81-8-215-37-231-50c-6-5-13-7-16-4c-5,5-85-30-161-70c-16-8-34-12-39-8c-7,3-8,1-4-5c4-7-3-14-19-18c-14-3-25-10-25-15
				s-5-9-11-9c-11,0-91-58-138-100c-15-14-45-41-67-60c-45-41-154-174-154-189c0-5-4-11-8-13c-23-10-119-205-153-313
				c-43-134-61-360-44-525c20-180,114-408,240-578c46-63,215-239,215-225c0,5,4,3,8-3c12-17,192-134,207-134c2,0,30-12,62-26
				c32-15,63-28,68-29c6-2,42-12,80-23c178-53,348-61,560-27c17,2,62,14,100,25c39,12,77,22,85,22c8,1,17,4,20,8c3,3,32,17,65,30
				s72,32,88,42c15,11,27,17,27,13c0-14,187,133,251,198c89,89,195,238,241,337c34,73,85,224,94,278C2698,1413,2705,1447,2710,1473z
				"/>
			<path d="M2706,1851c16-89,18-309,4-378c-5-26-12-60-14-75c-9-54-60-205-94-278c-46-99-152-248-241-337c-64-65-251-212-251-198
				c0,4-12-2-27-13c-16-10-55-29-88-42s-62-27-65-30c-3-4-12-7-20-8c-8,0-46-10-85-22c-38-11-83-23-100-25c-212-34-382-26-560,27
				c-38,11-74,21-80,23c-5,1-36,14-68,29c-32,14-60,26-62,26c-15,0-195,117-207,134c-4,6-8,8-8,3c0-14-169,162-215,225
				c-126,170-220,398-240,578c-17,165,1,391,44,525c34,108,130,303,153,313c4,2,8,8,8,13c0,15,109,148,154,189c22,19,52,46,67,60
				c47,42,127,100,138,100c6,0,11,4,11,9s11,12,25,15c16,4,23,11,19,18c-4,6-3,8,4,5c5-4,23,0,39,8c76,40,156,75,161,70
				c3-3,10-1,16,4c16,13,150,42,231,50c39,4,72,6,75,5s68-3,145-5s151-6,165-10c14-5,66-20,115-36c50-15,92-28,95-28
				c14-1,148-72,193-102c83-54,98-65,167-124c65-56,117-113,185-204C2588,2241,2674,2031,2706,1851z M2044,583
				c735,376,878,1369,279,1938c-177,168-406,283-632,318c-107,17-340,12-431-9c-322-72-580-247-756-511c-72-107-110-187-147-305
				C149,1354,532,667,1208,483c83-22,121-26,262-29C1704,450,1848,483,2044,583z"/>
		</g>
		<g>
		</g>
	</g>
	<g id="XMLID_2_">
		<g>
			<path class="st1" d="M2079,1924c25-21,31-33,31-67c0-41-4-45-277-319c-152-152-289-282-305-289c-21-9-35-9-56,0
				c-16,7-153,137-305,290c-270,271-277,278-277,318c0,39,23,72,60,86c23,8,30,8,53-4c12-6,129-117,260-247l237-237l238,237
				c130,130,247,241,259,247C2030,1955,2045,1953,2079,1924z"/>
		</g>
		<g>
		</g>
	</g>
	<g id="XMLID_3_">
		<g>
			<path class="st0" d="M2070,1897c21-22,23-31,11-60c-11-29-523-537-534-530c-6,3-7,1-3-5c7-12-30-32-58-32c-15,0-558,543-567,567
				c-7,21,7,64,24,75c38,24,60,8,299-231c132-132,246-242,253-245c8-3,109,91,253,235c195,196,245,240,271,244
				C2042,1918,2056,1913,2070,1897z"/>
		</g>
		<g>
		</g>
	</g>
</g>
</svg>
