<?xml version="1.0" standalone="no"?>
<!DOCTYPE svg PUBLIC "-//W3C//DTD SVG 20010904//EN"
 "http://www.w3.org/TR/2001/REC-SVG-20010904/DTD/svg10.dtd">
<svg version="1.0" xmlns="http://www.w3.org/2000/svg"
 width="300.000000pt" height="330.000000pt" viewBox="0 0 300.000000 330.000000"
 preserveAspectRatio="xMidYMid meet">
<metadata>
Created by potrace 1.10, written by Peter Selinger 2001-2011
</metadata>
<g transform="translate(0.000000,330.000000) scale(0.100000,-0.100000)"
fill="#000000" stroke="none">
<path d="M1195 3030 c-484 -111 -874 -463 -1029 -932 -51 -150 -66 -256 -66
-449 0 -247 35 -408 135 -614 227 -470 691 -772 1215 -792 381 -14 739 123
1014 387 130 126 215 239 286 385 92 188 128 314 151 529 24 227 -31 504 -145
736 -185 375 -512 637 -925 741 -108 28 -122 29 -335 28 -176 -1 -237 -4 -301
-19z m559 -16 c150 -29 338 -102 461 -177 28 -17 52 -34 55 -37 3 -3 24 -18
48 -34 23 -16 42 -33 42 -37 0 -5 6 -9 13 -9 6 0 54 -43 106 -95 52 -52 92
-95 88 -95 -3 0 5 -12 19 -27 46 -49 101 -139 152 -244 50 -104 106 -258 97
-267 -3 -3 -1 -10 4 -16 14 -17 40 -218 40 -315 1 -100 -23 -292 -45 -364 -65
-216 -163 -408 -256 -508 -10 -11 -18 -22 -18 -26 0 -17 -212 -209 -286 -259
-44 -30 -84 -54 -88 -54 -4 0 -20 -9 -36 -20 -15 -11 -30 -17 -34 -13 -3 3 -6
1 -6 -6 0 -7 -4 -9 -10 -6 -5 3 -10 1 -10 -4 0 -6 -4 -11 -9 -11 -5 0 -22 -5
-38 -11 -75 -31 -166 -61 -243 -81 -75 -20 -111 -22 -300 -22 -192 0 -224 2
-300 22 -47 13 -92 25 -100 27 -8 2 -15 4 -15 5 0 1 -10 3 -23 6 -54 10 -332
149 -332 166 0 4 -6 8 -12 8 -7 0 -30 15 -50 34 -20 19 -38 32 -41 30 -7 -7
-204 203 -250 268 -109 154 -194 349 -233 538 -27 127 -25 476 4 565 3 11 6
22 7 25 41 220 192 490 374 669 73 71 176 153 251 198 92 56 276 137 290 128
5 -3 10 -1 12 4 1 5 17 11 33 13 17 2 32 6 35 10 27 35 456 51 604 22z"/>
<path d="M1355 2869 c-81 -8 -215 -37 -231 -50 -6 -5 -13 -7 -16 -4 -5 5 -85
-30 -161 -70 -16 -8 -34 -12 -39 -8 -7 3 -8 1 -4 -5 4 -7 -3 -14 -19 -18 -14
-3 -25 -10 -25 -15 0 -5 -5 -9 -11 -9 -11 0 -91 -58 -138 -100 -15 -14 -45
-41 -67 -60 -45 -41 -154 -174 -154 -189 0 -5 -4 -11 -8 -13 -23 -10 -119
-205 -153 -313 -43 -134 -61 -360 -44 -525 20 -180 114 -408 240 -578 46 -63
215 -239 215 -225 0 5 4 3 8 -3 12 -17 192 -134 207 -134 2 0 30 -12 62 -26
32 -15 63 -28 68 -29 6 -2 42 -12 80 -23 178 -53 348 -61 560 -27 17 2 62 14
100 25 39 12 77 22 85 22 8 1 17 4 20 8 3 3 32 17 65 30 33 13 72 32 88 42 15
11 27 17 27 13 0 -14 187 133 251 198 89 89 195 238 241 337 34 73 85 224 94
278 2 15 9 49 14 75 14 69 12 289 -4 378 -32 180 -118 390 -211 514 -68 91
-120 148 -185 204 -69 59 -84 70 -167 124 -45 30 -179 101 -193 102 -3 0 -45
13 -95 28 -49 16 -101 31 -115 36 -14 4 -88 8 -165 10 -77 2 -142 4 -145 5 -3
1 -36 -1 -75 -5z m336 -30 c226 -35 455 -150 632 -318 599 -569 456 -1562
-279 -1938 -196 -100 -340 -133 -574 -129 -141 3 -179 7 -262 29 -676 184
-1059 871 -851 1531 37 118 75 198 147 305 176 264 434 439 756 511 91 21 324
26 431 9z"/>
<path d="M950 1943 c-37 -14 -60 -47 -60 -86 0 -40 7 -47 277 -318 152 -153
289 -283 305 -290 21 -9 35 -9 56 0 16 7 153 137 305 289 273 274 277 278 277
319 0 34 -6 46 -31 67 -34 29 -49 31 -82 15 -12 -6 -129 -117 -259 -247 l-238
-237 -237 237 c-131 130 -248 241 -260 247 -23 12 -30 12 -53 4z m292 -262
c132 -132 246 -242 253 -245 8 -3 109 91 253 235 195 196 245 240 271 244 23
3 37 -2 51 -18 21 -22 23 -31 11 -60 -11 -29 -523 -537 -534 -530 -6 3 -7 1
-3 -5 7 -12 -30 -32 -58 -32 -15 0 -558 543 -567 567 -7 21 7 64 24 75 38 24
60 8 299 -231z"/>
<path d="M2741 1454 c0 -11 3 -14 6 -6 3 7 2 16 -1 19 -3 4 -6 -2 -5 -13z"/>
<path d="M119 93 c-13 -16 -12 -17 4 -4 9 7 17 15 17 17 0 8 -8 3 -21 -13z"/>
</g>
</svg>
